<svg width="64" height="64" viewBox="0 0 64 64" xmlns="http://www.w3.org/2000/svg">
  <defs>
    <linearGradient id="iconGradient" x1="0%" y1="0%" x2="100%" y2="100%">
      <stop offset="0%" style="stop-color:#3B82F6;stop-opacity:1" />
      <stop offset="100%" style="stop-color:#9333EA;stop-opacity:1" />
    </linearGradient>
  </defs>
  
  <!-- Shield Background -->
  <path d="M 32 10 L 20 16 L 20 36 Q 20 46 32 50 Q 44 46 44 36 L 44 16 Z" 
        fill="url(#iconGradient)"/>
  
  <!-- Blockchain Blocks -->
  <rect x="24" y="22" width="8" height="8" rx="1" fill="white" opacity="0.9"/>
  <line x1="28" y1="24" x2="28" y2="28" stroke="#3B82F6" stroke-width="0.5"/>
  <line x1="26" y1="26" x2="30" y2="26" stroke="#3B82F6" stroke-width="0.5"/>
  
  <rect x="34" y="22" width="8" height="8" rx="1" fill="white" opacity="0.9"/>
  <line x1="38" y1="24" x2="38" y2="28" stroke="#3B82F6" stroke-width="0.5"/>
  <line x1="36" y1="26" x2="40" y2="26" stroke="#3B82F6" stroke-width="0.5"/>
  
  <rect x="29" y="32" width="8" height="8" rx="1" fill="white" opacity="0.9"/>
  <line x1="33" y1="34" x2="33" y2="38" stroke="#3B82F6" stroke-width="0.5"/>
  <line x1="31" y1="36" x2="35" y2="36" stroke="#3B82F6" stroke-width="0.5"/>
  
  <!-- AI Eye -->
  <circle cx="32" cy="18" r="4" fill="white"/>
  <circle cx="32" cy="18" r="2" fill="#3B82F6"/>
</svg>

